<svg width="94" height="15" viewBox="0 0 217 31" fill="none" xmlns="http://www.w3.org/2000/svg" class="logo-text">
                        <path d="M24.9842 0.378906V29.9074H17.7842V27.7537C16.3801 29.4217 14.2687 30.2663 11.4604 30.2663C9.4968 30.2663 7.70208 29.8123 6.08683 28.8939C4.47158 27.9754 3.1836 26.6769 2.24401 24.9772C1.30442 23.2774 0.829361 21.3138 0.829361 19.0862C0.829361 16.8587 1.30442 14.9056 2.24401 13.2164C3.1836 11.5273 4.46102 10.2393 6.08683 9.3314C7.70208 8.43404 9.4968 7.98008 11.4604 7.98008C14.0364 7.98008 16.0211 8.71908 17.4252 10.2076V0.378906H24.9842ZM16.264 22.8868C17.1085 21.9684 17.5414 20.7015 17.5414 19.0862C17.5414 17.4921 17.1191 16.2464 16.2851 15.349C15.4511 14.4516 14.3637 13.9977 13.044 13.9977C11.7138 13.9977 10.6264 14.4516 9.78185 15.349C8.93727 16.2464 8.50443 17.5027 8.50443 19.0862C8.50443 20.7015 8.92671 21.9684 9.78185 22.8868C10.6264 23.8053 11.7138 24.2593 13.044 24.2593C14.3426 24.2593 15.4194 23.7948 16.264 22.8868Z" fill="black"></path>
                        <path d="M54.0692 23.6575V29.9073H29.1121V24.9771L43.1637 8.29674H29.471V2.04688H53.478V6.97709L39.4264 23.6575H54.0692Z" fill="black"></path>
                        <path d="M80.2194 23.8158V29.9073H57.8488V2.04688H79.7021V8.13838H65.6505V12.8363H78.0235V18.7272H65.6505V23.8158H80.2194Z" fill="black"></path>
                        <path d="M110.909 2.04688V29.9073H104.416L92.1174 15.0639V29.9073H84.4001V2.04688H90.8927L103.192 16.8903V2.04688H110.909Z" fill="black"></path>
                        <path d="M120.221 28.8298C118.341 27.8796 116.874 26.5494 115.818 24.8497C114.773 23.15 114.245 21.2286 114.245 19.0749C114.245 16.9212 114.773 15.0104 115.818 13.3212C116.863 11.6321 118.331 10.323 120.221 9.38341C122.1 8.44382 124.243 7.96875 126.629 7.96875C129.067 7.96875 131.179 8.49661 132.953 9.54177C134.726 10.5869 135.993 12.0438 136.732 13.9019L130.883 16.8896C129.901 14.9576 128.466 13.9863 126.587 13.9863C125.235 13.9863 124.116 14.4403 123.219 15.3377C122.332 16.235 121.889 17.4913 121.889 19.0749C121.889 20.6902 122.332 21.957 123.219 22.8755C124.106 23.794 125.225 24.2479 126.587 24.2479C128.466 24.2479 129.901 23.2767 130.883 21.3447L136.732 24.3324C135.993 26.1905 134.726 27.6474 132.953 28.6925C131.179 29.7377 129.067 30.2655 126.629 30.2655C124.243 30.2655 122.11 29.7905 120.221 28.8298Z" fill="black"></path>
                        <path d="M144.502 28.8298C142.644 27.8796 141.187 26.5494 140.142 24.8497C139.097 23.15 138.569 21.2286 138.569 19.0749C138.569 16.9529 139.097 15.0421 140.142 13.3424C141.187 11.6426 142.633 10.323 144.481 9.38341C146.328 8.44382 148.419 7.96875 150.752 7.96875C153.085 7.96875 155.186 8.44382 157.044 9.38341C158.902 10.323 160.348 11.6426 161.383 13.3212C162.418 15.0104 162.935 16.9212 162.935 19.0749C162.935 21.2286 162.418 23.15 161.383 24.8497C160.348 26.5494 158.902 27.8796 157.044 28.8298C155.186 29.7799 153.085 30.2655 150.752 30.2655C148.44 30.2655 146.36 29.7905 144.502 28.8298ZM154.014 22.8861C154.859 21.9676 155.292 20.7007 155.292 19.0855C155.292 17.4913 154.869 16.2456 154.014 15.3482C153.17 14.4509 152.082 13.9969 150.752 13.9969C149.422 13.9969 148.334 14.4509 147.49 15.3482C146.645 16.2456 146.212 17.5019 146.212 19.0855C146.212 20.7007 146.635 21.9676 147.49 22.8861C148.334 23.8045 149.422 24.2585 150.752 24.2585C152.072 24.2585 153.159 23.794 154.014 22.8861Z" fill="black"></path>
                        <path d="M189.55 0.378906V29.9074H182.35V27.7537C180.945 29.4217 178.834 30.2663 176.026 30.2663C174.062 30.2663 172.267 29.8123 170.652 28.8939C169.037 27.9754 167.749 26.6769 166.809 24.9772C165.87 23.2774 165.395 21.3138 165.395 19.0862C165.395 16.8587 165.87 14.9056 166.809 13.2164C167.749 11.5273 169.026 10.2393 170.652 9.3314C172.267 8.43404 174.062 7.98008 176.026 7.98008C178.602 7.98008 180.586 8.71908 181.991 10.2076V0.378906H189.55ZM180.84 22.8868C181.684 21.9684 182.117 20.7015 182.117 19.0862C182.117 17.4921 181.695 16.2464 180.861 15.349C180.027 14.4516 178.94 13.9977 177.62 13.9977C176.29 13.9977 175.202 14.4516 174.358 15.349C173.513 16.2464 173.08 17.5027 173.08 19.0862C173.08 20.7015 173.503 21.9684 174.358 22.8868C175.202 23.8053 176.29 24.2593 177.62 24.2593C178.918 24.2593 179.985 23.7948 180.84 22.8868Z" fill="black"></path>
                        <path d="M216.016 21.028H200.339C200.656 22.1471 201.279 23.0022 202.187 23.5934C203.105 24.1952 204.245 24.4908 205.628 24.4908C206.663 24.4908 207.56 24.343 208.31 24.0579C209.07 23.7623 209.83 23.2872 210.601 22.6221L214.581 26.7606C212.48 29.0937 209.418 30.2655 205.385 30.2655C202.862 30.2655 200.645 29.7905 198.734 28.8298C196.823 27.8796 195.345 26.5494 194.3 24.8497C193.255 23.15 192.727 21.2286 192.727 19.0749C192.727 16.9529 193.234 15.0526 194.258 13.3635C195.282 11.6743 196.697 10.3547 198.502 9.40453C200.307 8.45438 202.334 7.96875 204.594 7.96875C206.747 7.96875 208.69 8.41215 210.442 9.29895C212.195 10.1858 213.578 11.4737 214.602 13.1629C215.626 14.852 216.133 16.8473 216.133 19.1488C216.143 19.2122 216.101 19.835 216.016 21.028ZM201.711 14.3453C200.93 15.0104 200.434 15.9078 200.223 17.0479H209.059C208.848 15.9078 208.352 14.9998 207.571 14.3453C206.789 13.6802 205.808 13.3529 204.646 13.3529C203.474 13.3529 202.493 13.6802 201.711 14.3453Z" fill="black"></path>
                    </svg>